<svg width="32" height="32" viewBox="0 0 32 32" fill="none" xmlns="http://www.w3.org/2000/svg">
<mask id="mask0_2_61" style="mask-type:luminance" maskUnits="userSpaceOnUse" x="0" y="0" width="32" height="32">
<path d="M0 0H32V32H0V0Z" fill="white"/>
</mask>
<g mask="url(#mask0_2_61)">
<path fill-rule="evenodd" clip-rule="evenodd" d="M10.972 0.402738C9.16641 0.402738 7.43601 1.10206 6.15921 2.34771L5.36656e-06 8.35669V11.1071C5.36656e-06 13.0505 0.856005 14.7988 2.21921 16.0125C1.5191 16.6341 0.960001 17.3917 0.577817 18.2366C0.195633 19.0815 -0.0011849 19.9951 5.36656e-06 20.9186V23.6691L6.15921 29.6773C6.80974 30.312 7.58546 30.8115 8.43946 31.1456C9.29347 31.4796 10.208 31.6412 11.1279 31.6206C12.0477 31.6 12.9537 31.3977 13.7911 31.0259C14.6285 30.654 15.38 30.1204 16 29.4572C16.6201 30.1203 17.3716 30.6538 18.209 31.0256C19.0464 31.3974 19.9524 31.5997 20.8722 31.6203C21.792 31.6408 22.7065 31.4793 23.5605 31.1453C24.4145 30.8114 25.1902 30.3119 25.8408 29.6773L32 23.6691V20.9186C32 18.9752 31.144 17.2269 29.7808 16.0125C30.4808 15.391 31.0399 14.6335 31.422 13.7887C31.8042 12.944 32.0011 12.0305 32 11.1071V8.35669L25.8408 2.34693C25.1902 1.71231 24.4144 1.21297 23.5604 0.87908C22.7063 0.545192 21.7918 0.383692 20.872 0.404337C19.9522 0.424982 19.0462 0.627344 18.2089 0.999195C17.3715 1.37105 16.6201 1.90467 16 2.56781C15.363 1.88488 14.5866 1.33947 13.7207 0.966615C12.8548 0.593756 11.9185 0.401686 10.972 0.402738ZM20.6072 16.0125C20.5304 15.9439 20.4551 15.8737 20.3816 15.8018L16 11.5278L11.6184 15.8025C11.5449 15.8745 11.4696 15.9447 11.3928 16.0133C11.4696 16.0812 11.5448 16.1514 11.6184 16.2232L16 20.4972L20.3816 16.2232C20.4552 16.1506 20.5304 16.0812 20.6072 16.0125ZM17.7776 23.6691V24.9819C17.7774 25.6091 17.968 26.2223 18.3251 26.744C18.6821 27.2656 19.1898 27.6721 19.7838 27.9123C20.3777 28.1524 21.0313 28.2152 21.6619 28.0929C22.2925 27.9706 22.8718 27.6685 23.3264 27.225L28.4448 22.2322V20.9186C28.4451 20.2912 28.2547 19.6778 27.8975 19.156C27.5404 18.6342 27.0326 18.2275 26.4385 17.9874C25.8444 17.7472 25.1906 17.6844 24.5598 17.8069C23.9291 17.9294 23.3498 18.2317 22.8952 18.6755L17.7776 23.6691ZM14.2224 23.6691L9.10481 18.6755C8.65027 18.2318 8.07103 17.9295 7.44037 17.807C6.80972 17.6845 6.15598 17.7472 5.56188 17.9872C4.96778 18.2273 4.46 18.6339 4.10281 19.1555C3.74561 19.6772 3.55504 20.2905 3.55521 20.9179V22.2322L8.67281 27.225C9.12734 27.6687 9.70658 27.971 10.3372 28.0935C10.9679 28.216 11.6216 28.1533 12.2157 27.9133C12.8098 27.6732 13.3176 27.2666 13.6748 26.745C14.032 26.2233 14.2226 25.61 14.2224 24.9826V23.6691ZM14.2224 7.04313V8.35669L9.10481 13.3495C8.65027 13.7932 8.07103 14.0955 7.44037 14.218C6.80972 14.3405 6.15598 14.2778 5.56188 14.0377C4.96778 13.7977 4.46 13.3911 4.10281 12.8695C3.74561 12.3478 3.55504 11.7345 3.55521 11.1071V9.79357L8.67281 4.80079C9.12734 4.35702 9.70658 4.05476 10.3372 3.93224C10.9679 3.80973 11.6216 3.87246 12.2157 4.11251C12.8098 4.35256 13.3176 4.75914 13.6748 5.2808C14.032 5.80247 14.2226 6.41577 14.2224 7.04313ZM22.8952 13.3495L17.7776 8.35669V7.04313C17.7776 6.41593 17.9682 5.80282 18.3254 5.28133C18.6825 4.75983 19.1902 4.35338 19.7841 4.11336C20.3781 3.87334 21.0316 3.81054 21.6621 3.9329C22.2927 4.05526 22.8718 4.35729 23.3264 4.80079L28.4448 9.79357V11.1071C28.445 11.7345 28.2544 12.3478 27.8972 12.8695C27.54 13.3911 27.0322 13.7977 26.4381 14.0377C25.844 14.2778 25.1903 14.3405 24.5596 14.218C23.929 14.0955 23.3497 13.7932 22.8952 13.3495Z" fill="#C7231A"/>
</g>
</svg>
